<svg width="252" height="252" viewBox="0 0 252 252" fill="none" xmlns="http://www.w3.org/2000/svg">
<path d="M0 126C0 142.547 3.25909 158.931 9.59118 174.218C15.9233 189.505 25.2044 203.395 36.9045 215.095C48.6047 226.796 62.4949 236.077 77.7819 242.409C93.0689 248.741 109.453 252 126 252L126 126L0 126Z" fill="white"/>
<path d="M126 0C109.453 0 93.0689 3.25909 77.7819 9.59118C62.4949 15.9233 48.6047 25.2044 36.9045 36.9045C25.2044 48.6047 15.9233 62.4949 9.59118 77.7819C3.25908 93.0689 -7.23273e-07 109.453 0 126L126 126L126 0Z" fill="#FB8500"/>
</svg>
