<svg width="252" height="252" viewBox="0 0 252 252" fill="none" xmlns="http://www.w3.org/2000/svg">
<path d="M252 126C252 109.453 248.741 93.0689 242.409 77.7819C236.077 62.4949 226.796 48.6047 215.095 36.9045C203.395 25.2044 189.505 15.9233 174.218 9.59118C158.931 3.25908 142.547 -7.23273e-07 126 0L126 126H252Z" fill="#FB8500"/>
<path d="M126 252C142.547 252 158.931 248.741 174.218 242.409C189.505 236.077 203.395 226.796 215.095 215.095C226.796 203.395 236.077 189.505 242.409 174.218C248.741 158.931 252 142.547 252 126L126 126L126 252Z" fill="white"/>
</svg>
